<?xml version="1.0" standalone="no"?>
<!DOCTYPE svg PUBLIC "-//W3C//DTD SVG 20010904//EN"
 "http://www.w3.org/TR/2001/REC-SVG-20010904/DTD/svg10.dtd">
<svg version="1.0" xmlns="http://www.w3.org/2000/svg"
 width="800.000000pt" height="800.000000pt" viewBox="0 0 800.000000 800.000000"
 preserveAspectRatio="xMidYMid meet">
<metadata>
Created by potrace 1.11, written by Peter Selinger 2001-2013
</metadata>
<g transform="translate(0.000000,800.000000) scale(0.100000,-0.100000)"
fill="#000000" stroke="none">
<path d="M1846 5224 c-21 -96 -35 -182 -32 -190 3 -8 2 -13 -2 -10 -11 7 -86
-340 -78 -360 3 -8 2 -13 -2 -10 -11 7 -86 -340 -78 -360 3 -8 2 -13 -2 -10
-8 4 -82 -318 -82 -351 0 -10 30 -13 115 -13 l115 0 11 28 c6 15 9 39 7 54 -3
15 -1 25 2 23 11 -7 34 141 25 156 -5 8 -4 10 3 5 8 -5 12 0 12 13 0 20 5 21
173 21 l172 0 30 -147 30 -148 118 -3 c106 -2 117 -1 117 15 0 37 -34 172 -42
167 -4 -3 -5 2 -2 10 8 20 -67 367 -78 360 -4 -3 -5 2 -2 10 7 19 -67 367 -77
361 -4 -3 -5 3 -3 12 3 10 -20 133 -51 274 -30 140 -55 259 -55 262 0 4 -69 7
-153 7 l-154 0 -37 -176z m256 -472 c32 -174 58 -320 58 -324 0 -5 -56 -8
-125 -8 -69 0 -125 4 -125 8 0 4 21 120 46 257 25 137 43 258 40 267 -2 10 0
16 4 13 4 -3 11 19 15 47 8 57 14 73 23 63 3 -3 32 -149 64 -323z"/>
<path d="M2720 4660 l0 -740 355 0 355 0 5 23 c3 12 5 63 3 112 l-3 90 -237 3
-238 2 0 625 0 625 -120 0 -120 0 0 -740z"/>
<path d="M3672 4663 l3 -738 355 0 355 0 3 112 3 113 -238 2 -238 3 -3 623 -2
622 -120 0 -120 0 2 -737z"/>
<path d="M4627 5393 c-10 -9 -8 -1445 1 -1461 7 -9 87 -12 368 -10 l359 3 3
113 3 112 -251 0 -250 0 2 198 3 197 193 3 193 2 -3 113 -3 112 -192 3 -193 2
0 195 0 195 248 2 247 3 3 113 3 112 -364 0 c-200 0 -367 -3 -370 -7z"/>
<path d="M5610 5285 l0 -115 204 0 204 0 4 -25 c3 -13 2 -22 -3 -20 -11 7 -22
-32 -13 -46 4 -7 3 -9 -4 -5 -13 8 -36 -59 -26 -75 4 -7 3 -9 -4 -5 -13 8 -26
-29 -16 -45 4 -7 3 -9 -4 -5 -13 8 -26 -29 -16 -45 4 -7 3 -9 -4 -5 -13 8 -36
-59 -26 -75 4 -7 3 -9 -4 -5 -13 8 -26 -29 -16 -45 4 -7 3 -9 -4 -5 -13 8 -36
-59 -26 -75 4 -7 3 -9 -4 -5 -13 8 -26 -29 -16 -45 4 -7 3 -9 -4 -5 -13 8 -36
-59 -26 -75 4 -7 3 -9 -4 -5 -13 8 -26 -29 -16 -45 4 -7 3 -9 -4 -5 -13 8 -26
-29 -16 -45 4 -7 3 -9 -4 -5 -13 8 -36 -59 -26 -75 4 -7 3 -9 -4 -5 -13 8 -26
-29 -16 -45 4 -7 3 -9 -4 -5 -13 8 -36 -59 -26 -75 4 -7 3 -9 -4 -5 -13 8 -26
-29 -16 -45 4 -7 3 -9 -4 -5 -13 8 -36 -59 -26 -75 4 -7 3 -9 -4 -5 -13 8 -26
-29 -16 -45 4 -7 3 -9 -4 -5 -13 8 -26 -29 -16 -45 4 -7 3 -9 -3 -6 -12 7 -33
-42 -33 -74 0 -18 17 -19 385 -19 l385 0 0 115 0 115 -219 0 -218 0 1 29 c1
16 4 27 8 25 10 -6 20 34 12 47 -4 7 -3 9 4 5 13 -8 26 29 16 45 -4 7 -3 9 4
5 13 -8 36 59 26 75 -4 7 -3 9 4 5 13 -8 26 29 16 45 -4 7 -3 9 4 5 13 -8 36
59 26 75 -4 7 -3 9 4 5 13 -8 26 29 16 45 -4 7 -3 9 4 5 13 -8 36 59 26 75 -4
7 -3 9 4 5 13 -8 26 29 16 45 -4 7 -3 9 4 5 13 -8 26 29 16 45 -4 7 -3 9 4 5
13 -8 36 59 26 75 -4 7 -3 9 4 5 13 -8 26 29 16 45 -4 7 -3 9 4 5 13 -8 36 59
26 75 -4 7 -3 9 4 5 13 -8 26 29 16 45 -4 7 -3 9 4 5 13 -8 36 59 26 75 -4 7
-3 9 4 5 13 -8 26 29 16 45 -4 7 -3 9 4 5 13 -8 26 29 16 45 -4 7 -3 9 4 5 13
-8 36 59 26 75 -4 7 -3 9 4 5 13 -8 26 29 16 45 -4 7 -3 9 3 6 11 -7 33 41 33
69 0 12 -67 14 -375 14 l-375 0 0 -115z"/>
<path d="M2510 3540 c-66 -23 -123 -79 -142 -141 -10 -34 -13 -167 -13 -594
l0 -550 23 -50 c30 -65 53 -89 115 -117 48 -21 65 -23 238 -23 l185 0 59 30
c45 23 66 42 90 79 30 49 30 51 33 214 3 128 0 167 -10 173 -15 10 -188 12
-212 3 -13 -5 -16 -24 -16 -106 0 -92 -2 -101 -25 -123 -22 -22 -32 -25 -104
-25 -131 0 -121 -42 -121 502 0 542 -11 498 123 498 118 0 121 -3 127 -137 l5
-108 115 0 115 0 3 145 c3 175 -6 217 -62 276 -60 62 -112 74 -310 74 -131 -1
-171 -4 -216 -20z"/>
<path d="M3337 3554 c-4 -4 -7 -339 -7 -745 0 -663 2 -737 16 -743 23 -9 207
-7 222 2 10 7 12 163 10 748 l-3 739 -116 3 c-63 1 -118 -1 -122 -4z"/>
<path d="M3817 3553 c-4 -3 -7 -338 -7 -744 0 -663 2 -737 16 -743 20 -8 198
-8 218 0 14 5 16 52 16 418 0 249 4 405 10 396 5 -9 72 -193 150 -410 78 -217
147 -398 153 -402 16 -10 199 -10 215 0 10 7 12 163 10 748 l-3 739 -120 0
-120 0 -5 -410 c-4 -308 -8 -404 -16 -385 -6 14 -71 194 -144 400 -73 206
-137 381 -143 388 -10 13 -218 18 -230 5z"/>
<path d="M4837 3553 c-4 -3 -7 -338 -7 -744 0 -663 2 -737 16 -743 9 -3 170
-6 359 -6 299 0 346 2 359 16 12 12 16 37 16 109 0 51 -3 100 -6 109 -5 14
-37 16 -250 16 l-244 0 0 190 0 190 188 2 187 3 0 120 0 120 -187 3 -188 2 0
185 0 185 240 0 c280 0 260 -10 260 125 0 137 38 125 -379 125 -197 0 -361 -3
-364 -7z"/>
</g>
</svg>
